<svg xmlns="http://www.w3.org/2000/svg" xmlns:xlink="http://www.w3.org/1999/xlink" xmlns:sketch="http://www.bohemiancoding.com/sketch/ns" viewBox="0 0 97 58" version="1.1" x="0px" y="0px"><title>Cloud</title><desc>Created with Sketch.</desc><g stroke="none" stroke-width="1" fill="none" fill-rule="evenodd" sketch:type="MSPage"><g sketch:type="MSArtboardGroup" transform="translate(-55.000000, -76.000000)" stroke="#000000" stroke-width="2"><path d="M71.8784128,132.992001 C71.7126237,132.99732 71.5461721,133 71.3790984,133 C62.8854569,133 56,126.074503 56,117.531469 C56,110.326851 60.8970032,104.27264 67.5257748,102.552479 C66.6326377,100.96198 66.1229508,99.1247741 66.1229508,97.1678322 C66.1229508,91.1120106 71.003781,86.2027972 77.0245902,86.2027972 C78.8330619,86.2027972 80.5386822,86.6457176 82.0400736,87.4295914 L82.0400736,87.4295914 C86.8823758,81.1126165 94.77745,77 103.694672,77 C114.375277,77 123.589502,82.8999823 127.848129,91.4209886 L127.848129,91.4209886 C132.243623,92.8345941 135.42623,96.9770333 135.42623,101.867133 C135.42623,102.888191 135.287474,103.876653 135.027895,104.814483 C135.22464,104.807646 135.422331,104.804196 135.620902,104.804196 C144.114543,104.804196 151,111.116042 151,118.902098 C151,126.688154 144.114543,133 135.620902,133 C135.615142,133 135.609384,132.999997 135.603626,132.999991 C135.597876,132.999992 135.592117,133 135.586355,133 L72.1923335,133 C72.0870456,133 71.9823838,132.997312 71.8784128,132.992001 Z" sketch:type="MSShapeGroup"></path></g></g></svg>