<svg xmlns="http://www.w3.org/2000/svg" xmlns:xlink="http://www.w3.org/1999/xlink" xmlns:sketch="http://www.bohemiancoding.com/sketch/ns" viewBox="0 0 93 94" version="1.1" x="0px" y="0px"><title>Clear Day</title><desc>Created with Sketch.</desc><g stroke="none" stroke-width="1" fill="none" fill-rule="evenodd" sketch:type="MSPage"><g sketch:type="MSArtboardGroup" transform="translate(-61.000000, -846.000000)" stroke="#000000" stroke-width="2"><g sketch:type="MSLayerGroup" transform="translate(62.000000, 847.000000)"><path d="M46,70.1399064 C59.4267947,70.1399064 70.3113625,59.2816935 70.3113625,45.8874092 C70.3113625,32.4931249 59.4267947,21.634912 46,21.634912 C32.5732053,21.634912 21.6886375,32.4931249 21.6886375,45.8874092 C21.6886375,59.2816935 32.5732053,70.1399064 46,70.1399064 Z" sketch:type="MSShapeGroup"></path><path d="M46,0 L46,10.5" stroke-linecap="round" sketch:type="MSShapeGroup"></path><path d="M78,13 L70.8025698,19.797573" stroke-linecap="round" sketch:type="MSShapeGroup"></path><path d="M15,13 L22,20" stroke-linecap="round" sketch:type="MSShapeGroup"></path><path d="M11.0104122,45.5 L0.510412216,45.5" stroke-linecap="round" sketch:type="MSShapeGroup"></path><path d="M90.8210205,45.5 L80.3210205,45.5" stroke-linecap="round" sketch:type="MSShapeGroup"></path><path d="M46,81 L46,91.5" stroke-linecap="round" sketch:type="MSShapeGroup"></path><path d="M22,72 L15,79" stroke-linecap="round" sketch:type="MSShapeGroup"></path><path d="M70,72 L77,79" stroke-linecap="round" sketch:type="MSShapeGroup"></path></g></g></g></svg>