<svg xmlns="http://www.w3.org/2000/svg" xmlns:xlink="http://www.w3.org/1999/xlink" xmlns:sketch="http://www.bohemiancoding.com/sketch/ns" viewBox="0 0 63 97" version="1.1" x="0px" y="0px"><title>Tornado</title><desc>Created with Sketch.</desc><g stroke="none" stroke-width="1" fill="none" fill-rule="evenodd" sketch:type="MSPage"><g sketch:type="MSArtboardGroup" transform="translate(-78.000000, -987.000000)" stroke-linecap="round" stroke="#000000" stroke-width="2"><g sketch:type="MSLayerGroup" transform="translate(79.000000, 988.000000)"><path d="M3.58823529,0.896226415 L60.5514706,0.896226415" sketch:type="MSShapeGroup"></path><path d="M8.97058824,8.06603774 L59.2058824,8.06603774" sketch:type="MSShapeGroup"></path><path d="M0.897058824,29.5754717 L42.1617647,29.5754717" sketch:type="MSShapeGroup"></path><path d="M1.79411765,36.745283 L36.7794118,36.745283" sketch:type="MSShapeGroup"></path><path d="M2.69117647,43.9150943 L41.2647059,43.9150943" sketch:type="MSShapeGroup"></path><path d="M5.38235294,51.0849057 L46.6470588,51.0849057" sketch:type="MSShapeGroup"></path><path d="M10.7647059,58.254717 L51.1323529,58.254717" sketch:type="MSShapeGroup"></path><path d="M12.5588235,65.4245283 L50.2352941,65.4245283" sketch:type="MSShapeGroup"></path><path d="M15.25,72.5943396 L47.5441176,72.5943396" sketch:type="MSShapeGroup"></path><path d="M20.6323529,79.7641509 L44.8529412,79.7641509" sketch:type="MSShapeGroup"></path><path d="M25.1176471,86.9339623 L41.2647059,86.9339623" sketch:type="MSShapeGroup"></path><path d="M27.8088235,94.1037736 L37.6764706,94.1037736" sketch:type="MSShapeGroup"></path><path d="M2.69117647,15.2358491 L54.7205882,15.2358491" sketch:type="MSShapeGroup"></path><path d="M0,22.4056604 L48.4411765,22.4056604" sketch:type="MSShapeGroup"></path></g></g></g></svg>