<svg xmlns="http://www.w3.org/2000/svg" xmlns:xlink="http://www.w3.org/1999/xlink" xmlns:sketch="http://www.bohemiancoding.com/sketch/ns" viewBox="0 0 98 95" version="1.1" x="0px" y="0px"><title>Partly Cloudy Night</title><desc>Created with Sketch.</desc><g stroke="none" stroke-width="1" fill="none" fill-rule="evenodd" sketch:type="MSPage"><g sketch:type="MSArtboardGroup" transform="translate(-193.000000, -691.000000)" stroke="#000000" stroke-width="2"><g sketch:type="MSLayerGroup" transform="translate(194.500000, 692.000000)"><path d="M79.3077718,60.2450631 C85.0375383,58.225559 89.9956191,54.5698461 93.6209539,49.8389845 L93.6209539,49.8389845 C75.8763881,48.1391341 62,33.1900691 62,15 C62,9.71958034 63.1693503,4.71227707 65.2632241,0.222916848 C49.9044075,2.06818899 38,15.1438828 38,31 C38,33.5497675 38.3078331,36.0276367 38.8883619,38.3984704 C41.6452842,37.4925184 44.608773,37 47.6946721,37 C58.3752765,37 67.5895019,42.8999823 71.848129,51.4209886 C75.7482346,52.6752755 78.6934403,56.077959 79.3077718,60.2450631 L79.3077718,60.2450631 Z" sketch:type="MSShapeGroup"></path><path d="M15.8784128,92.9920014 C15.7126237,92.9973203 15.5461721,93 15.3790984,93 C6.88545687,93 0,86.0745026 0,77.5314685 C0,70.3268507 4.89700322,64.2726404 11.5257748,62.5524792 C10.6326377,60.96198 10.1229508,59.1247741 10.1229508,57.1678322 C10.1229508,51.1120106 15.003781,46.2027972 21.0245902,46.2027972 C22.8330619,46.2027972 24.5386822,46.6457176 26.0400736,47.4295914 L26.0400736,47.4295914 C30.8823758,41.1126165 38.77745,37 47.6946721,37 C58.3752765,37 67.5895019,42.8999823 71.848129,51.4209886 L71.848129,51.4209886 C76.243623,52.8345941 79.4262295,56.9770333 79.4262295,61.8671329 C79.4262295,62.8881912 79.2874745,63.8766532 79.0278954,64.8144835 C79.2246402,64.8076456 79.4223314,64.8041958 79.6209016,64.8041958 C88.1145431,64.8041958 95,71.1160416 95,78.9020979 C95,86.6881542 88.1145431,93 79.6209016,93 C79.6151424,93 79.6093839,92.9999971 79.6036261,92.9999913 C79.5978761,92.999992 79.5921165,93 79.586355,93 L16.1923335,93 C16.0870456,93 15.9823838,92.9973121 15.8784128,92.9920014 Z" sketch:type="MSShapeGroup"></path></g></g></g></svg>