<svg xmlns="http://www.w3.org/2000/svg" xmlns:xlink="http://www.w3.org/1999/xlink" xmlns:sketch="http://www.bohemiancoding.com/sketch/ns" viewBox="0 0 87 90" version="1.1" x="0px" y="0px"><title>Clear Night</title><desc>Created with Sketch.</desc><g stroke="none" stroke-width="1" fill="none" fill-rule="evenodd" sketch:type="MSPage"><g sketch:type="MSArtboardGroup" transform="translate(-192.000000, -848.000000)"><g sketch:type="MSLayerGroup" transform="translate(193.500000, 849.500000)"><path d="M68.8734039,80.3673176 C61.9550761,84.5701524 53.7736411,87 45.0067348,87 C20.1508566,87 0.00118613652,67.4680987 0.00118613652,43.3742775 C0.00118613652,21.4520815 16.6822864,3.30651518 38.4118063,0.213612572 C36.0904486,7.07252201 34.8253642,14.467967 34.8253642,22.1777834 C34.8253642,47.7138789 48.7037959,69.8012059 68.8734039,80.3673176 Z" stroke="#000000" stroke-width="2" sketch:type="MSShapeGroup"></path><polygon fill="#000000" sketch:type="MSShapeGroup" points="55.2136752 8.93513514 53.5055813 9.80706417 53.8317982 7.96028884 52.4499212 6.65239529 54.3596283 6.3829544 55.2136752 4.7027027 56.0677222 6.3829544 57.9774292 6.65239529 56.5955522 7.96028884 56.9217691 9.80706417 "></polygon><polygon fill="#000000" sketch:type="MSShapeGroup" points="61.025641 45.1459459 59.3175471 46.017875 59.643764 44.1710997 58.261887 42.8632061 60.1715941 42.5937652 61.025641 40.9135135 61.879688 42.5937652 63.789395 42.8632061 62.407518 44.1710997 62.7337349 46.017875 "></polygon><polygon fill="#000000" sketch:type="MSShapeGroup" points="73.6182336 24.6891892 71.9101397 25.5611182 72.2363566 23.7143429 70.8544796 22.4064493 72.7641867 22.1370085 73.6182336 20.4567568 74.4722806 22.1370085 76.3819876 22.4064493 75.0001106 23.7143429 75.3263275 25.5611182 "></polygon><polygon fill="#000000" sketch:type="MSShapeGroup" points="82.0940171 65.6027027 80.3859232 66.4746317 80.7121401 64.6278564 79.3302631 63.3199629 81.2399701 63.050522 82.0940171 61.3702703 82.948064 63.050522 84.8577711 63.3199629 83.4758941 64.6278564 83.802111 66.4746317 "></polygon></g></g></g></svg>