<?xml version="1.0" encoding="utf-8"?>
<!-- Generator: Adobe Illustrator 16.0.0, SVG Export Plug-In . SVG Version: 6.00 Build 0)  -->
<!DOCTYPE svg PUBLIC "-//W3C//DTD SVG 1.1//EN" "http://www.w3.org/Graphics/SVG/1.1/DTD/svg11.dtd">
<svg version="1.1" id="Capa_1" xmlns="http://www.w3.org/2000/svg" xmlns:xlink="http://www.w3.org/1999/xlink" x="0px" y="0px"
	 width="450px" height="400px" viewBox="0 0 450 400" enable-background="new 0 0 450 400" xml:space="preserve">
<g id="Capa_2">
	<circle fill="#FFFFFF" stroke="#000000" stroke-width="7" stroke-miterlimit="10" cx="145.215" cy="149.763" r="80.878"/>
	
		<line fill="none" stroke="#000000" stroke-width="7" stroke-linecap="round" stroke-miterlimit="10" x1="142.5" y1="10" x2="142.5" y2="44"/>
	
		<line fill="none" stroke="#000000" stroke-width="7" stroke-linecap="round" stroke-miterlimit="10" x1="241.836" y1="50.292" x2="218.112" y2="72.703"/>
	
		<line fill="none" stroke="#000000" stroke-width="7" stroke-linecap="round" stroke-miterlimit="10" x1="281" y1="150.5" x2="247" y2="150.5"/>
	
		<line fill="none" stroke="#000000" stroke-width="7" stroke-linecap="round" stroke-miterlimit="10" x1="243.473" y1="249.348" x2="220.405" y2="226.279"/>
	
		<line fill="none" stroke="#000000" stroke-width="7" stroke-linecap="round" stroke-miterlimit="10" x1="142.5" y1="288" x2="142.5" y2="252"/>
	
		<line fill="none" stroke="#000000" stroke-width="7" stroke-linecap="round" stroke-miterlimit="10" x1="44.026" y1="249.348" x2="67.109" y2="226.279"/>
	
		<line fill="none" stroke="#000000" stroke-width="7" stroke-linecap="round" stroke-miterlimit="10" x1="8" y1="150.5" x2="42" y2="150.5"/>
	
		<line fill="none" stroke="#000000" stroke-width="7" stroke-linecap="round" stroke-miterlimit="10" x1="52.668" y1="51.526" x2="75.75" y2="74.604"/>
	<path d="M57.201,122.351c0,0,17.584-0.94,26.497-1.954c8.912-1.013,19.113-2.812,23.784-2.614
		c4.672,0.197,14.859,0.523,25.96,2.491c11.103,1.971,7.998,2.027,12.794,2.027c4.796,0,16.053-2.286,16.053-2.286
		s16.809-3.161,26.626-2.056s20.49,3.559,30.278,4.553C228.98,123.505,235,123.72,235,123.72v10.66c0,0-5.764-2.099-6.003,8.028
		c-0.24,10.125-2.396,38.763-36.649,34.565c-34.255-4.196-35.063-31.706-41.1-40.142c0,0,0.461-2.517-5.36-2.517
		c-5.821,0-5.759,2.924-5.759,2.924s-9.534,35.999-35.275,38.884c-25.741,2.883-37.384-2.358-42.59-33.736
		c0,0,1.096-10.621-5.298-9.84L57.201,122.351z"/>
</g>
<g>
	<path d="M291.033,226.938c0,3.765-1.177,6.644-3.529,8.638c-2.353,1.993-5.698,2.99-10.036,2.99h-3.183v12.441h-7.417v-34.979
		h11.174c4.242,0,7.468,0.913,9.678,2.739C289.929,220.594,291.033,223.316,291.033,226.938z M274.285,232.488h2.44
		c2.281,0,3.987-0.45,5.12-1.352s1.698-2.214,1.698-3.937c0-1.738-0.475-3.022-1.423-3.852c-0.949-0.829-2.437-1.244-4.462-1.244
		h-3.374V232.488z"/>
	<path d="M309.169,251.485c-4.307,0-7.672-1.188-10.097-3.564c-2.425-2.377-3.637-5.742-3.637-10.098
		c0-4.481,1.12-7.946,3.361-10.396c2.241-2.448,5.34-3.673,9.295-3.673c3.781,0,6.724,1.077,8.829,3.23s3.158,5.128,3.158,8.924
		v3.541h-17.251c0.08,2.074,0.694,3.693,1.843,4.857s2.76,1.746,4.833,1.746c1.611,0,3.135-0.167,4.57-0.502
		s2.935-0.869,4.498-1.604v5.646c-1.276,0.639-2.641,1.113-4.092,1.424C313.029,251.33,311.259,251.485,309.169,251.485z
		 M308.141,228.947c-1.548,0-2.76,0.49-3.637,1.472c-0.878,0.98-1.38,2.372-1.508,4.175h10.24c-0.032-1.803-0.502-3.194-1.412-4.175
		C310.916,229.438,309.688,228.947,308.141,228.947z"/>
	<path d="M340.942,223.755c0.989,0,1.811,0.072,2.465,0.216l-0.551,6.843c-0.59-0.159-1.308-0.239-2.153-0.239
		c-2.329,0-4.144,0.599-5.443,1.794c-1.3,1.197-1.95,2.871-1.95,5.025v13.613h-7.297v-26.749h5.527l1.076,4.498h0.359
		c0.829-1.499,1.949-2.707,3.361-3.625C337.748,224.214,339.283,223.755,340.942,223.755z"/>
	<path d="M363.05,229.737h-6.316v21.27h-7.298v-21.27h-4.02v-3.518l4.02-1.962v-1.962c0-3.047,0.75-5.271,2.25-6.676
		c1.499-1.403,3.899-2.104,7.201-2.104c2.521,0,4.762,0.375,6.723,1.124l-1.865,5.359c-1.468-0.463-2.824-0.693-4.068-0.693
		c-1.036,0-1.786,0.307-2.248,0.921c-0.463,0.614-0.694,1.399-0.694,2.356v1.675h6.316V229.737z"/>
	<path d="M379.343,251.485c-4.307,0-7.672-1.188-10.097-3.564c-2.425-2.377-3.637-5.742-3.637-10.098
		c0-4.481,1.12-7.946,3.361-10.396c2.241-2.448,5.34-3.673,9.295-3.673c3.781,0,6.724,1.077,8.829,3.23s3.158,5.128,3.158,8.924
		v3.541h-17.251c0.08,2.074,0.694,3.693,1.843,4.857s2.76,1.746,4.833,1.746c1.611,0,3.135-0.167,4.57-0.502
		s2.935-0.869,4.498-1.604v5.646c-1.276,0.639-2.641,1.113-4.092,1.424C383.203,251.33,381.433,251.485,379.343,251.485z
		 M378.314,228.947c-1.548,0-2.76,0.49-3.637,1.472c-0.878,0.98-1.38,2.372-1.508,4.175h10.24c-0.032-1.803-0.502-3.194-1.412-4.175
		C381.09,229.438,379.861,228.947,378.314,228.947z"/>
	<path d="M407.049,251.485c-8.326,0-12.489-4.57-12.489-13.709c0-4.547,1.133-8.02,3.397-10.42s5.511-3.602,9.737-3.602
		c3.095,0,5.87,0.606,8.326,1.818l-2.152,5.646c-1.148-0.462-2.218-0.841-3.207-1.136c-0.988-0.295-1.978-0.442-2.967-0.442
		c-3.796,0-5.693,2.695-5.693,8.086c0,5.232,1.897,7.848,5.693,7.848c1.404,0,2.704-0.187,3.9-0.562s2.393-0.961,3.589-1.759v6.244
		c-1.181,0.75-2.373,1.269-3.577,1.556S408.883,251.485,407.049,251.485z"/>
	<path d="M432.65,245.671c1.275,0,2.807-0.278,4.594-0.837v5.431c-1.818,0.814-4.052,1.221-6.699,1.221
		c-2.92,0-5.045-0.737-6.377-2.213s-1.998-3.688-1.998-6.64v-12.896h-3.492v-3.087l4.02-2.44l2.105-5.646h4.665v5.694h7.489v5.479
		h-7.489v12.896c0,1.037,0.291,1.803,0.873,2.297S431.693,245.671,432.65,245.671z"/>
	<path d="M333.74,281.183c0,5.758-1.639,10.168-4.916,13.23c-3.278,3.062-8.012,4.594-14.2,4.594h-9.905v-34.979h10.982
		c5.71,0,10.145,1.507,13.303,4.522C332.162,271.563,333.74,275.774,333.74,281.183z M326.037,281.374
		c0-7.514-3.318-11.27-9.953-11.27h-3.948v22.777h3.183C322.464,292.882,326.037,289.046,326.037,281.374z"/>
	<path d="M362.404,299.007l-2.537-8.326h-12.752l-2.536,8.326h-7.991l12.346-35.123h9.068l12.393,35.123H362.404z M358.098,284.46
		c-2.346-7.545-3.665-11.812-3.96-12.801c-0.296-0.988-0.507-1.77-0.634-2.344c-0.527,2.041-2.034,7.09-4.522,15.145H358.098z"/>
	<path d="M385.684,278.431l7.297-14.403h7.991l-11.604,21.366v13.613h-7.369v-13.375l-11.604-21.604h8.039L385.684,278.431z"/>
	<path d="M304.564,341.671c1.275,0,2.807-0.278,4.594-0.837v5.431c-1.818,0.814-4.052,1.221-6.699,1.221
		c-2.92,0-5.045-0.737-6.377-2.213s-1.998-3.688-1.998-6.64v-12.896h-3.492v-3.087l4.02-2.44l2.105-5.646h4.665v5.694h7.489v5.479
		h-7.489v12.896c0,1.037,0.291,1.803,0.873,2.297S303.607,341.671,304.564,341.671z"/>
	<path d="M338.873,333.585c0,4.354-1.148,7.76-3.445,10.216s-5.495,3.685-9.594,3.685c-2.568,0-4.834-0.562-6.795-1.687
		c-1.963-1.125-3.47-2.739-4.522-4.845s-1.579-4.562-1.579-7.369c0-4.371,1.141-7.769,3.422-10.193
		c2.28-2.424,5.486-3.637,9.617-3.637c2.568,0,4.834,0.559,6.795,1.676c1.963,1.116,3.47,2.719,4.522,4.809
		S338.873,330.777,338.873,333.585z M320.379,333.585c0,2.647,0.434,4.649,1.304,6.005c0.869,1.355,2.284,2.034,4.247,2.034
		c1.945,0,3.345-0.674,4.198-2.022c0.854-1.348,1.28-3.354,1.28-6.017c0-2.648-0.431-4.634-1.292-5.958s-2.272-1.985-4.235-1.985
		c-1.945,0-3.35,0.657-4.211,1.974C320.809,328.931,320.379,330.921,320.379,333.585z"/>
	<path d="M380.91,320.258v3.708l-4.187,1.077c0.766,1.196,1.148,2.536,1.148,4.02c0,2.871-1.001,5.108-3.003,6.711
		c-2.002,1.604-4.781,2.405-8.338,2.405l-1.316-0.072l-1.076-0.119c-0.75,0.574-1.125,1.212-1.125,1.914
		c0,1.053,1.34,1.578,4.02,1.578h4.547c2.935,0,5.171,0.631,6.711,1.891c1.539,1.26,2.309,3.11,2.309,5.551
		c0,3.126-1.304,5.551-3.912,7.273c-2.607,1.723-6.352,2.584-11.232,2.584c-3.732,0-6.584-0.65-8.554-1.95
		c-1.971-1.3-2.955-3.122-2.955-5.467c0-1.611,0.503-2.959,1.507-4.044c1.006-1.084,2.48-1.857,4.427-2.32
		c-0.75-0.319-1.403-0.841-1.962-1.567c-0.559-0.726-0.838-1.495-0.838-2.309c0-1.021,0.296-1.87,0.886-2.548
		s1.443-1.344,2.56-1.998c-1.403-0.606-2.516-1.579-3.337-2.919c-0.822-1.34-1.232-2.919-1.232-4.737
		c0-2.919,0.949-5.176,2.847-6.771c1.898-1.595,4.61-2.393,8.135-2.393c0.75,0,1.64,0.068,2.668,0.204
		c1.029,0.136,1.688,0.235,1.975,0.299H380.91z M360.263,350.787c0,1.005,0.482,1.794,1.447,2.368s2.317,0.861,4.056,0.861
		c2.616,0,4.666-0.358,6.148-1.076c1.484-0.718,2.226-1.699,2.226-2.943c0-1.004-0.438-1.698-1.315-2.081
		c-0.878-0.383-2.233-0.574-4.068-0.574h-3.779c-1.34,0-2.461,0.314-3.362,0.945C360.713,348.917,360.263,349.75,360.263,350.787z
		 M362.918,329.015c0,1.451,0.331,2.6,0.993,3.445s1.671,1.268,3.026,1.268c1.372,0,2.377-0.422,3.016-1.268
		c0.638-0.846,0.957-1.994,0.957-3.445c0-3.222-1.324-4.833-3.973-4.833C364.258,324.182,362.918,325.793,362.918,329.015z"/>
	<path d="M409.621,333.585c0,4.354-1.148,7.76-3.445,10.216s-5.495,3.685-9.594,3.685c-2.568,0-4.834-0.562-6.795-1.687
		c-1.963-1.125-3.47-2.739-4.522-4.845s-1.579-4.562-1.579-7.369c0-4.371,1.141-7.769,3.422-10.193
		c2.28-2.424,5.486-3.637,9.617-3.637c2.568,0,4.834,0.559,6.795,1.676c1.963,1.116,3.47,2.719,4.522,4.809
		S409.621,330.777,409.621,333.585z M391.127,333.585c0,2.647,0.434,4.649,1.304,6.005c0.869,1.355,2.284,2.034,4.247,2.034
		c1.945,0,3.345-0.674,4.198-2.022c0.854-1.348,1.28-3.354,1.28-6.017c0-2.648-0.431-4.634-1.292-5.958s-2.272-1.985-4.235-1.985
		c-1.945,0-3.35,0.657-4.211,1.974C391.557,328.931,391.127,330.921,391.127,333.585z"/>
	<path d="M286.639,378.185c0,5.555-1.377,9.822-4.131,12.807c-2.754,2.982-6.701,4.475-11.842,4.475s-9.088-1.492-11.842-4.475
		c-2.754-2.984-4.131-7.268-4.131-12.852c0-5.585,1.381-9.85,4.143-12.795c2.762-2.944,6.721-4.418,11.877-4.418
		c5.155,0,9.099,1.484,11.83,4.453C285.273,368.348,286.639,372.616,286.639,378.185z M262.152,378.185
		c0,3.749,0.711,6.572,2.135,8.469c1.422,1.897,3.549,2.846,6.379,2.846c5.677,0,8.515-3.771,8.515-11.314
		c0-7.558-2.823-11.336-8.468-11.336c-2.831,0-4.966,0.952-6.403,2.856C262.871,371.61,262.152,374.437,262.152,378.185z"/>
	<path d="M311.218,395.007l-0.941-3.281h-0.367c-0.749,1.193-1.812,2.115-3.189,2.765c-1.377,0.65-2.945,0.976-4.705,0.976
		c-3.014,0-5.286-0.807-6.815-2.421c-1.53-1.614-2.295-3.937-2.295-6.966V369.35h6.999v14.985c0,1.852,0.329,3.24,0.987,4.166
		c0.657,0.926,1.706,1.389,3.144,1.389c1.959,0,3.374-0.654,4.246-1.963c0.872-1.308,1.309-3.477,1.309-6.506V369.35h6.999v25.657
		H311.218z"/>
	<path d="M334.74,389.89c1.225,0,2.693-0.268,4.406-0.804v5.21c-1.744,0.779-3.886,1.17-6.426,1.17
		c-2.799,0-4.838-0.707-6.115-2.123c-1.278-1.415-1.916-3.537-1.916-6.368v-12.37h-3.352v-2.96l3.855-2.341l2.02-5.416h4.476v5.462
		h7.183v5.255h-7.183v12.37c0,0.995,0.279,1.729,0.838,2.203C333.084,389.652,333.822,389.89,334.74,389.89z"/>
	<path d="M362.234,387.388c0,2.632-0.914,4.636-2.742,6.013c-1.829,1.377-4.563,2.065-8.205,2.065c-1.866,0-3.457-0.126-4.773-0.379
		c-1.315-0.252-2.547-0.623-3.694-1.113v-5.783c1.3,0.612,2.766,1.125,4.395,1.538c1.63,0.413,3.063,0.62,4.304,0.62
		c2.539,0,3.809-0.734,3.809-2.203c0-0.551-0.168-0.999-0.504-1.343c-0.337-0.345-0.918-0.734-1.744-1.171
		c-0.826-0.436-1.928-0.944-3.305-1.525c-1.975-0.826-3.424-1.592-4.35-2.295c-0.926-0.704-1.599-1.511-2.02-2.422
		c-0.421-0.91-0.631-2.031-0.631-3.361c0-2.28,0.884-4.043,2.65-5.29c1.768-1.247,4.272-1.87,7.516-1.87
		c3.091,0,6.097,0.673,9.02,2.02l-2.111,5.049c-1.285-0.551-2.486-1.002-3.604-1.354c-1.116-0.352-2.257-0.528-3.419-0.528
		c-2.065,0-3.099,0.56-3.099,1.676c0,0.628,0.333,1.17,0.999,1.629c0.665,0.459,2.122,1.141,4.372,2.043
		c2.004,0.812,3.473,1.568,4.406,2.271c0.933,0.704,1.621,1.516,2.064,2.434C362.013,385.024,362.234,386.118,362.234,387.388z"/>
	<path d="M367.397,362.718c0-2.28,1.271-3.42,3.811-3.42c2.539,0,3.809,1.14,3.809,3.42c0,1.086-0.317,1.932-0.952,2.535
		c-0.635,0.604-1.587,0.906-2.856,0.906C368.668,366.159,367.397,365.013,367.397,362.718z M374.696,395.007h-7V369.35h7V395.007z"
		/>
	<path d="M390.163,395.466c-3.015,0-5.382-1.17-7.103-3.512c-1.722-2.34-2.582-5.584-2.582-9.73c0-4.207,0.876-7.484,2.628-9.833
		c1.751-2.349,4.165-3.522,7.24-3.522c3.228,0,5.691,1.254,7.39,3.764h0.229c-0.353-1.913-0.528-3.618-0.528-5.118v-8.216h7.023
		v35.709h-5.371l-1.354-3.328h-0.299C395.847,394.204,393.422,395.466,390.163,395.466z M392.619,389.89
		c1.789,0,3.102-0.521,3.936-1.561c0.833-1.041,1.288-2.808,1.365-5.302v-0.757c0-2.754-0.425-4.729-1.273-5.922
		c-0.85-1.193-2.23-1.789-4.143-1.789c-1.561,0-2.773,0.661-3.638,1.984c-0.864,1.324-1.296,3.248-1.296,5.771
		c0,2.525,0.436,4.418,1.308,5.681C389.75,389.258,390.997,389.89,392.619,389.89z"/>
	<path d="M423.394,395.466c-4.131,0-7.359-1.14-9.685-3.42c-2.326-2.279-3.488-5.508-3.488-9.684c0-4.3,1.074-7.623,3.225-9.972
		c2.149-2.349,5.121-3.522,8.916-3.522c3.625,0,6.448,1.032,8.468,3.098s3.029,4.919,3.029,8.561v3.396h-16.546
		c0.076,1.988,0.665,3.542,1.767,4.658c1.102,1.117,2.646,1.676,4.636,1.676c1.545,0,3.006-0.161,4.383-0.482
		s2.815-0.834,4.314-1.537v5.416c-1.224,0.611-2.532,1.066-3.924,1.365C427.096,395.316,425.397,395.466,423.394,395.466z
		 M422.406,373.848c-1.483,0-2.646,0.471-3.488,1.411c-0.841,0.941-1.323,2.276-1.445,4.005h9.822
		c-0.031-1.729-0.482-3.063-1.354-4.005C425.068,374.318,423.891,373.848,422.406,373.848z"/>
	<path d="M438.563,391.726c0-1.285,0.344-2.257,1.032-2.915c0.688-0.657,1.69-0.987,3.007-0.987c1.27,0,2.252,0.337,2.948,1.01
		c0.696,0.674,1.044,1.638,1.044,2.893c0,1.208-0.352,2.161-1.055,2.856c-0.704,0.696-1.684,1.044-2.938,1.044
		c-1.285,0-2.28-0.34-2.984-1.021C438.915,393.925,438.563,392.964,438.563,391.726z M445.425,383.876h-5.6l-1.17-22.421h7.939
		L445.425,383.876z"/>
</g>
</svg>
