<?xml version="1.0" encoding="utf-8"?>
<!-- Generator: Adobe Illustrator 16.0.0, SVG Export Plug-In . SVG Version: 6.00 Build 0)  -->
<!DOCTYPE svg PUBLIC "-//W3C//DTD SVG 1.1//EN" "http://www.w3.org/Graphics/SVG/1.1/DTD/svg11.dtd">
<svg version="1.1" id="Capa_1" xmlns="http://www.w3.org/2000/svg" xmlns:xlink="http://www.w3.org/1999/xlink" x="0px" y="0px"
	 width="450px" height="400px" viewBox="0 0 450 400" enable-background="new 0 0 450 400" xml:space="preserve">
<g id="Capa_2">
	<circle fill="#FFFFFF" stroke="#000000" stroke-width="7" stroke-miterlimit="10" cx="145.215" cy="149.763" r="80.878"/>
	
		<line fill="none" stroke="#000000" stroke-width="7" stroke-linecap="round" stroke-miterlimit="10" x1="142.5" y1="10" x2="142.5" y2="44"/>
	
		<line fill="none" stroke="#000000" stroke-width="7" stroke-linecap="round" stroke-miterlimit="10" x1="241.836" y1="50.292" x2="218.112" y2="72.703"/>
	
		<line fill="none" stroke="#000000" stroke-width="7" stroke-linecap="round" stroke-miterlimit="10" x1="281" y1="150.5" x2="247" y2="150.5"/>
	
		<line fill="none" stroke="#000000" stroke-width="7" stroke-linecap="round" stroke-miterlimit="10" x1="243.473" y1="249.348" x2="220.405" y2="226.28"/>
	
		<line fill="none" stroke="#000000" stroke-width="7" stroke-linecap="round" stroke-miterlimit="10" x1="142.5" y1="288" x2="142.5" y2="252"/>
	
		<line fill="none" stroke="#000000" stroke-width="7" stroke-linecap="round" stroke-miterlimit="10" x1="44.026" y1="249.348" x2="67.109" y2="226.28"/>
	
		<line fill="none" stroke="#000000" stroke-width="7" stroke-linecap="round" stroke-miterlimit="10" x1="8" y1="150.5" x2="42" y2="150.5"/>
	
		<line fill="none" stroke="#000000" stroke-width="7" stroke-linecap="round" stroke-miterlimit="10" x1="52.668" y1="51.526" x2="75.75" y2="74.604"/>
	<path d="M57.201,122.351c0,0,17.584-0.94,26.497-1.954c8.912-1.013,19.113-2.812,23.784-2.614
		c4.672,0.197,14.859,0.523,25.96,2.491c11.103,1.971,7.998,2.027,12.794,2.027c4.796,0,16.053-2.286,16.053-2.286
		s16.809-3.161,26.626-2.056s20.49,3.559,30.278,4.553C228.98,123.505,235,123.72,235,123.72v10.66c0,0-5.764-2.099-6.003,8.028
		c-0.24,10.125-2.396,38.763-36.649,34.565c-34.255-4.196-35.063-31.706-41.1-40.142c0,0,0.461-2.517-5.36-2.517
		c-5.821,0-5.759,2.924-5.759,2.924s-9.534,35.999-35.275,38.884c-25.741,2.883-37.384-2.358-42.59-33.736
		c0,0,1.096-10.621-5.298-9.84L57.201,122.351z"/>
</g>
<g id="text">
	<rect x="264.289" y="211.514" fill="none" width="180.711" height="183.02"/>
	<g enable-background="new    ">
		<path d="M295.725,224.53c0,3.721-1.163,6.566-3.488,8.537c-2.326,1.971-5.633,2.956-9.921,2.956h-3.146v12.297h-7.33v-34.574
			h11.043c4.193,0,7.383,0.902,9.566,2.708S295.725,220.951,295.725,224.53z M279.17,230.017h2.412c2.255,0,3.941-0.445,5.061-1.336
			s1.68-2.188,1.68-3.891c0-1.718-0.469-2.987-1.407-3.808c-0.938-0.819-2.408-1.229-4.411-1.229h-3.334V230.017z"/>
		<path d="M313.65,248.793c-4.258,0-7.584-1.174-9.98-3.523c-2.396-2.349-3.594-5.676-3.594-9.979c0-4.43,1.107-7.855,3.322-10.275
			s5.277-3.63,9.188-3.63c3.736,0,6.645,1.064,8.727,3.192c2.08,2.128,3.121,5.069,3.121,8.821v3.5h-17.051
			c0.079,2.049,0.686,3.649,1.821,4.8c1.135,1.151,2.728,1.727,4.776,1.727c1.593,0,3.099-0.165,4.518-0.496
			c1.418-0.331,2.9-0.859,4.445-1.585v5.581c-1.262,0.631-2.609,1.1-4.043,1.407C317.465,248.64,315.715,248.793,313.65,248.793z
			 M312.633,226.517c-1.529,0-2.728,0.484-3.594,1.454c-0.868,0.97-1.365,2.346-1.49,4.127h10.121
			c-0.031-1.781-0.496-3.157-1.395-4.127C315.376,227.001,314.162,226.517,312.633,226.517z"/>
		<path d="M345.055,221.385c0.978,0,1.789,0.071,2.436,0.213l-0.543,6.764c-0.584-0.158-1.293-0.237-2.129-0.237
			c-2.302,0-4.096,0.592-5.38,1.774c-1.285,1.182-1.927,2.838-1.927,4.966v13.456h-7.213v-26.439h5.463l1.063,4.446h0.354
			c0.82-1.481,1.928-2.676,3.323-3.583C341.898,221.838,343.415,221.385,345.055,221.385z"/>
		<path d="M366.906,227.297h-6.243v21.023h-7.213v-21.023h-3.973v-3.477l3.973-1.939v-1.938c0-3.012,0.741-5.211,2.224-6.599
			c1.481-1.387,3.854-2.081,7.117-2.081c2.491,0,4.707,0.371,6.646,1.112l-1.845,5.297c-1.45-0.457-2.79-0.686-4.02-0.686
			c-1.025,0-1.766,0.304-2.223,0.91c-0.458,0.607-0.687,1.384-0.687,2.329v1.655h6.243V227.297z"/>
		<path d="M383.011,248.793c-4.257,0-7.583-1.174-9.979-3.523c-2.396-2.349-3.595-5.676-3.595-9.979
			c0-4.43,1.107-7.855,3.322-10.275s5.277-3.63,9.188-3.63c3.737,0,6.646,1.064,8.727,3.192s3.122,5.069,3.122,8.821v3.5h-17.051
			c0.078,2.049,0.686,3.649,1.82,4.8c1.135,1.151,2.728,1.727,4.777,1.727c1.592,0,3.098-0.165,4.517-0.496s2.901-0.859,4.446-1.585
			v5.581c-1.262,0.631-2.609,1.1-4.044,1.407S385.076,248.793,383.011,248.793z M381.994,226.517c-1.529,0-2.729,0.484-3.595,1.454
			c-0.868,0.97-1.364,2.346-1.49,4.127h10.122c-0.032-1.781-0.497-3.157-1.396-4.127
			C384.736,227.001,383.523,226.517,381.994,226.517z"/>
		<path d="M410.396,248.793c-8.229,0-12.345-4.517-12.345-13.551c0-4.493,1.119-7.926,3.358-10.299
			c2.239-2.372,5.446-3.559,9.625-3.559c3.059,0,5.802,0.6,8.229,1.797l-2.128,5.581c-1.136-0.457-2.192-0.831-3.169-1.123
			c-0.979-0.292-1.955-0.438-2.933-0.438c-3.753,0-5.628,2.664-5.628,7.993c0,5.171,1.875,7.757,5.628,7.757
			c1.388,0,2.673-0.186,3.854-0.556c1.183-0.37,2.365-0.95,3.547-1.738v6.172c-1.166,0.741-2.345,1.254-3.535,1.537
			C413.71,248.651,412.209,248.793,410.396,248.793z"/>
		<path d="M435.7,243.047c1.261,0,2.774-0.275,4.54-0.828v5.368c-1.797,0.805-4.004,1.206-6.621,1.206
			c-2.885,0-4.986-0.729-6.303-2.188c-1.316-1.458-1.975-3.646-1.975-6.562v-12.746h-3.453v-3.051l3.974-2.412l2.081-5.581h4.611
			v5.628h7.402v5.416h-7.402v12.746c0,1.025,0.287,1.782,0.863,2.271C433.993,242.803,434.754,243.047,435.7,243.047z"/>
	</g>
	<g enable-background="new    ">
		<path d="M337.938,278.058c0,5.691-1.621,10.051-4.86,13.078c-3.239,3.026-7.919,4.54-14.036,4.54h-9.789v-34.574h10.854
			c5.645,0,10.027,1.49,13.148,4.47C336.376,268.551,337.938,272.713,337.938,278.058z M330.322,278.247
			c0-7.426-3.279-11.139-9.838-11.139h-3.902v22.514h3.146C326.791,289.622,330.322,285.83,330.322,278.247z"/>
		<path d="M366.268,295.676l-2.506-8.229h-12.605l-2.507,8.229h-7.898l12.202-34.716h8.963l12.25,34.716H366.268z M362.012,281.298
			c-2.318-7.457-3.623-11.675-3.914-12.652c-0.293-0.978-0.501-1.75-0.627-2.317c-0.521,2.019-2.01,7.008-4.47,14.97H362.012z"/>
		<path d="M389.277,275.338l7.213-14.236h7.898L392.92,282.22v13.456h-7.283v-13.22l-11.471-21.354h7.946L389.277,275.338z"/>
	</g>
	<g enable-background="new    ">
		<path d="M296.34,323.878h-5.688v19.154h-6.571v-19.154h-3.62v-3.168l3.62-1.767v-1.767c0-2.744,0.675-4.747,2.025-6.012
			c1.35-1.264,3.512-1.896,6.485-1.896c2.27,0,4.288,0.338,6.054,1.013l-1.68,4.827c-1.322-0.417-2.543-0.625-3.663-0.625
			c-0.935,0-1.608,0.276-2.025,0.829c-0.417,0.554-0.625,1.261-0.625,2.123v1.508h5.688V323.878z"/>
		<path d="M322.002,330.944c0,3.922-1.035,6.989-3.104,9.2c-2.068,2.213-4.948,3.318-8.64,3.318c-2.313,0-4.353-0.506-6.119-1.519
			s-3.124-2.467-4.072-4.363s-1.422-4.108-1.422-6.637c0-3.936,1.026-6.995,3.081-9.179c2.054-2.183,4.941-3.274,8.662-3.274
			c2.312,0,4.352,0.503,6.119,1.508c1.766,1.006,3.123,2.449,4.072,4.331C321.527,326.212,322.002,328.417,322.002,330.944z
			 M305.346,330.944c0,2.385,0.392,4.188,1.175,5.408c0.782,1.222,2.058,1.832,3.825,1.832c1.752,0,3.012-0.607,3.781-1.821
			c0.768-1.213,1.152-3.02,1.152-5.419c0-2.384-0.388-4.172-1.164-5.364c-0.775-1.192-2.047-1.789-3.813-1.789
			c-1.753,0-3.017,0.593-3.792,1.777C305.734,326.754,305.346,328.546,305.346,330.944z"/>
		<path d="M340.877,318.491c0.89,0,1.629,0.064,2.219,0.193l-0.496,6.162c-0.531-0.143-1.178-0.215-1.939-0.215
			c-2.097,0-3.73,0.538-4.901,1.615c-1.171,1.078-1.756,2.586-1.756,4.525v12.26h-6.571v-24.089h4.977l0.97,4.051h0.323
			c0.747-1.351,1.756-2.438,3.027-3.265C338,318.904,339.383,318.491,340.877,318.491z"/>
		<path d="M369.08,338.228c1.149,0,2.529-0.251,4.138-0.754v4.891c-1.638,0.732-3.649,1.099-6.033,1.099
			c-2.628,0-4.543-0.664-5.742-1.993c-1.199-1.328-1.799-3.321-1.799-5.979v-11.613h-3.146v-2.78l3.619-2.197l1.896-5.085h4.201
			v5.128h6.744v4.935h-6.744v11.613c0,0.934,0.262,1.623,0.787,2.068C367.525,338.005,368.219,338.228,369.08,338.228z"/>
		<path d="M400.323,343.032h-6.571v-14.069c0-3.477-1.293-5.215-3.879-5.215c-1.839,0-3.168,0.625-3.986,1.875
			c-0.818,1.249-1.229,3.274-1.229,6.076v11.333h-6.571v-33.526h6.571v6.83c0,0.532-0.05,1.781-0.15,3.749l-0.15,1.939h0.344
			c1.466-2.355,3.793-3.533,6.982-3.533c2.829,0,4.977,0.761,6.441,2.283c1.465,1.523,2.198,3.706,2.198,6.551V343.032z"/>
		<path d="M417.991,343.463c-3.878,0-6.909-1.069-9.093-3.21s-3.275-5.171-3.275-9.093c0-4.036,1.01-7.157,3.027-9.362
			c2.018-2.204,4.809-3.307,8.371-3.307c3.404,0,6.055,0.969,7.951,2.908c1.896,1.939,2.844,4.618,2.844,8.037v3.188h-15.535
			c0.072,1.868,0.625,3.326,1.659,4.374c1.034,1.049,2.485,1.573,4.353,1.573c1.45,0,2.822-0.151,4.115-0.452
			c1.293-0.302,2.643-0.783,4.051-1.444v5.085c-1.149,0.575-2.378,1.002-3.685,1.282
			C421.467,343.323,419.873,343.463,417.991,343.463z M417.064,323.166c-1.394,0-2.485,0.442-3.275,1.325
			c-0.789,0.884-1.242,2.137-1.357,3.76h9.223c-0.029-1.623-0.453-2.876-1.271-3.76
			C419.564,323.608,418.457,323.166,417.064,323.166z"/>
	</g>
	<g enable-background="new    ">
		<path d="M270.035,351.972h11.955c5.447,0,9.402,0.775,11.863,2.326c2.461,1.55,3.692,4.016,3.692,7.396
			c0,2.295-0.539,4.178-1.616,5.649s-2.51,2.356-4.297,2.653v0.263c2.436,0.544,4.191,1.56,5.27,3.049
			c1.076,1.488,1.615,3.468,1.615,5.938c0,3.503-1.266,6.236-3.797,8.197c-2.531,1.963-5.969,2.943-10.312,2.943h-14.373V351.972z
			 M278.18,367.186h4.73c2.207,0,3.805-0.341,4.795-1.024s1.484-1.813,1.484-3.39c0-1.472-0.538-2.526-1.615-3.166
			c-1.078-0.64-2.781-0.959-5.111-0.959h-4.283V367.186z M278.18,373.649v10.012h5.309c2.242,0,3.896-0.429,4.966-1.288
			c1.068-0.857,1.603-2.172,1.603-3.941c0-3.188-2.277-4.782-6.832-4.782H278.18z"/>
		<path d="M318.855,390.913c-4.729,0-8.426-1.305-11.088-3.915c-2.663-2.61-3.994-6.307-3.994-11.089
			c0-4.922,1.23-8.728,3.691-11.417c2.461-2.688,5.864-4.033,10.209-4.033c4.151,0,7.383,1.183,9.695,3.548
			c2.312,2.364,3.469,5.632,3.469,9.801v3.889h-18.945c0.088,2.277,0.762,4.056,2.023,5.334c1.262,1.279,3.03,1.918,5.308,1.918
			c1.769,0,3.442-0.184,5.019-0.552c1.576-0.367,3.223-0.954,4.94-1.761v6.201c-1.401,0.701-2.899,1.223-4.493,1.563
			C323.096,390.742,321.15,390.913,318.855,390.913z M317.727,366.161c-1.699,0-3.031,0.539-3.994,1.616
			c-0.964,1.077-1.516,2.605-1.656,4.585h11.246c-0.035-1.979-0.551-3.508-1.55-4.585S319.425,366.161,317.727,366.161z"/>
		<path d="M356.01,390.388l-1.55-3.994h-0.21c-1.35,1.699-2.738,2.877-4.165,3.534c-1.429,0.657-3.289,0.985-5.584,0.985
			c-2.82,0-5.04-0.806-6.661-2.417c-1.62-1.611-2.43-3.906-2.43-6.885c0-3.118,1.09-5.417,3.271-6.897
			c2.18-1.48,5.469-2.299,9.866-2.457l5.098-0.157v-1.288c0-2.978-1.524-4.467-4.572-4.467c-2.348,0-5.106,0.71-8.276,2.129
			l-2.654-5.413c3.381-1.77,7.129-2.654,11.246-2.654c3.941,0,6.963,0.858,9.064,2.575c2.104,1.717,3.154,4.327,3.154,7.83v19.576
			H356.01z M353.646,376.776l-3.101,0.105c-2.33,0.07-4.064,0.49-5.203,1.261c-1.139,0.771-1.707,1.945-1.707,3.521
			c0,2.26,1.295,3.39,3.889,3.39c1.855,0,3.341-0.534,4.453-1.603s1.669-2.487,1.669-4.257V376.776z"/>
		<path d="M381.787,390.913c-9.145,0-13.717-5.019-13.717-15.056c0-4.993,1.244-8.807,3.731-11.443s6.052-3.955,10.694-3.955
			c3.398,0,6.447,0.666,9.145,1.997l-2.365,6.201c-1.262-0.508-2.436-0.924-3.521-1.248s-2.172-0.486-3.258-0.486
			c-4.169,0-6.254,2.961-6.254,8.882c0,5.745,2.085,8.618,6.254,8.618c1.541,0,2.969-0.205,4.283-0.617
			c1.314-0.411,2.627-1.056,3.941-1.932v6.858c-1.297,0.823-2.605,1.393-3.928,1.708
			C385.47,390.756,383.801,390.913,381.787,390.913z"/>
		<path d="M424.644,390.388h-8.015v-17.158c0-4.239-1.576-6.359-4.729-6.359c-2.242,0-3.862,0.763-4.86,2.286
			c-0.999,1.524-1.498,3.994-1.498,7.41v13.821h-8.015v-40.886h8.015v8.329c0,0.648-0.062,2.173-0.184,4.572l-0.185,2.365h0.421
			c1.786-2.873,4.624-4.31,8.514-4.31c3.45,0,6.068,0.929,7.855,2.785c1.787,1.857,2.681,4.52,2.681,7.988V390.388z"/>
		<path d="M431.764,386.63c0-1.471,0.395-2.583,1.184-3.337c0.787-0.753,1.936-1.13,3.441-1.13c1.454,0,2.58,0.386,3.377,1.156
			c0.797,0.771,1.195,1.875,1.195,3.311c0,1.385-0.403,2.475-1.209,3.271s-1.927,1.195-3.363,1.195c-1.471,0-2.61-0.39-3.416-1.169
			S431.764,388.049,431.764,386.63z M439.621,377.644h-6.412l-1.34-25.672h9.092L439.621,377.644z"/>
	</g>
</g>
</svg>
