<svg xmlns="http://www.w3.org/2000/svg" xmlns:xlink="http://www.w3.org/1999/xlink" version="1.1" x="0px" y="0px" viewBox="0 0 100 125" enable-background="new 0 0 100 100" xml:space="preserve"><path d="M52.2,48.5c0-1.5-1-2.6-2.6-2.8c-0.1,0-0.2,0-0.3,0c-1.3,0-2.4,1.2-2.6,2.7l0,0c-0.1,0.9,0.2,1.6,0.6,2.2  c0.3,0.3,0.9,0.7,1.8,0.7c0.1,0,0.3,0,0.4,0l0,0C50.7,51.1,52.1,49.9,52.2,48.5L52.2,48.5z M49.3,49.6c-0.3,0-0.6,0-0.7-0.2  c-0.2-0.2-0.2-0.5-0.2-0.8c0.1-0.8,0.7-1.2,0.9-1.2l0,0l0.1,0c0.8,0.1,1.2,0.5,1.2,1.1C50.4,48.9,49.7,49.5,49.3,49.6z"/><path d="M78.9,42.9c-1.7-4.6-6-7.8-11-7.8c-2.8,0-5.3,1-7.3,2.7l-0.1,0.1c-2.7,2.3-4.4,5.8-4.4,9.7c0,6.9,5.3,12.4,11.8,12.4  c4.7,0,8.8-2.9,10.7-7.1c0.6,2.5,2,5.4,4.9,6.7c4.3,2,4.9,7.9,4.9,7.9C95,58.3,90.2,41.2,78.9,42.9z M68,57.8  c-5.4,0-9.7-4.7-9.7-10.4c0-1.9,0.5-3.7,1.3-5.2c1.1,3.4,4.3,6.1,7.8,7.1c3.3,1,6.7,0.9,10.1,0.3C76.5,54.4,72.6,57.8,68,57.8z"/><path d="M41.4,41.2c-1.5,0-2.7,1-3.2,2.7l0,0.1c-0.2,1.1,0.1,2.1,0.7,2.9c0.5,0.6,1.2,1,2.1,1.1c0.1,0,0.2,0,0.4,0  c1.6,0,3-1.1,3.5-2.7l0-0.2c0.2-1.9-0.8-3.4-2.7-3.8C41.9,41.2,41.6,41.2,41.4,41.2z M43.1,44.8c-0.3,0.7-0.9,1.5-1.8,1.5l-0.2,0  c-0.4,0-0.7-0.2-0.9-0.5c-0.3-0.3-0.4-0.9-0.3-1.5c0.3-0.9,0.9-1.4,1.5-1.4c0.1,0,0.2,0,0.4,0.1C43.1,43.3,43.2,44.3,43.1,44.8z"/><path d="M26.5,42.6c5.2,0,9.4-1.3,14.2-4.5c3.9-2.8,8.7-7.3,9.3-12.9c0.7-8.8-4.2-19.3-20.4-21.9C27.9,3.1,26.4,3,25,3  c-4.2,0-7.7,1.1-11.6,3.6c-2.7,1.8-8.9,6.1-9.7,13.2c-0.6,6.1,1,11.7,4.4,15.7c3.7,4.3,9.3,6.7,16.3,7.1  C25.2,42.6,25.9,42.6,26.5,42.6z M9.5,34.4c-3.2-3.7-4.6-8.8-4-14.4C6.2,13.5,11.9,9.7,14.4,8C18,5.7,21.1,4.7,25,4.7  c1.3,0,2.8,0.1,4.3,0.4c6.5,1,11.6,3,15,7c3,3.6,4.4,8.2,4,13.1c-0.5,4.9-4.9,9-8.5,11.6c-4.4,2.9-8.4,4.2-13.2,4.2  c-0.6,0-1.3,0-1.9-0.1C18.1,40.5,12.9,38.3,9.5,34.4z"/><rect x="15.1" y="14.3" width="23.3" height="4.4"/><rect x="15.1" y="20.6" width="5.8" height="11.1"/><rect x="23.5" y="20.6" width="14.9" height="11.1"/><path d="M83.6,77.5c0.8-2.8,0.8-5.4,0-9.1c-0.2-0.9-0.6-1.9-1.1-2.7c-1.9-1.9-5.5-4.1-9.8-4.1h0c-1.9,0-3.9,0.4-6,1.5  c-7.8,4.1-10.6,10.1-12.1,13c-0.5,0.9-0.9,1.7-1.2,2.6c0.8,2,1.7,4,2.5,6l0,0c0.3,0.7,0.5,1.3,0.8,2c1.6,0.4,3.4,0.9,5.1,1.4  c0.4,0.1,0.9,0.2,1.3,0.4c0.2-0.1,0.3-0.1,0.4-0.1c0.7-0.3,1.4-0.6,2.1-0.9c-1.1-0.3-2.2-0.6-3.4-1c-2-0.6-4.1-1.2-5.9-1.6  c2.2-9.9,8.3-13.8,8.3-13.8c2.8,4.2,5.1,9.4,5,14.4c1.1-0.6,2.3-1.3,3.3-2c1.7-1.2,4-3.3,5-6.9c0.5-1.6,0.4-2.7,0.2-3.9  c-0.1-0.2,0-0.5,0.1-0.7l0-0.1l0,0c0.1-0.1,0.2-0.1,0.4-0.1c0.1,0,0.2,0,0.3,0.1c0.1,0.1,0.2,0.4,0.2,0.7c0,0.3,0.3,2.2-0.2,4.3  c-1,3.6-3.2,5.8-5.4,7.4c-1.9,1.4-4.1,2.6-6.4,3.6c-0.8,0.4-1.6,0.7-2.5,1.1c-0.3,0.1-0.6,0.2-0.8,0.4c0,0-2.9,0.8-2.5,2.1  c0.2,0.6,1,1,2.2,1.1l0,0c0.1,0,0.3,0,0.4,0h0l0,0l0,0h0l0.3,0l0.2,0c0.1,0,0.2,0,0.3,0l0.2,0c0.1,0,0.2,0,0.4-0.1l0.2,0  c0.2,0,0.4-0.1,0.6-0.1c2.4-0.7,6.6-2.2,9.8-4.6C78.5,85.6,82.3,82.3,83.6,77.5z"/><path d="M84.6,77.8c-1.4,5.1-5.4,8.6-8.2,10.6c-1.6,1.1-3.4,2.2-5.6,3.1c1,0.4,2.2,0.5,3.3,0.5c0.6,0,1.3,0,1.9-0.1  c2.7-0.2,5.4-0.7,7.9-1.6c0.6-0.2,0.8-0.6,0.9-1.2c0.3-2.6,0.6-5.4,0.6-8.3v-0.1c0-1.8-0.1-3.5-0.3-5.2C85,76.3,84.8,77.1,84.6,77.8  z"/><path d="M50.5,87.4L50.5,87.4l0-0.2l0,0l0,0c-0.1-0.4-0.2-0.9-0.4-1.4c-0.4-1.2-0.7-2.2-1.2-2.2l-0.1,0c-0.6,0.2-0.8,1.4-0.4,2.7  c0.1,0.3,0.2,0.7,0.4,0.9c0.1,0.2,0.2,0.3,0.3,0.5l0,0l0.2,0.2l0,0l0.2,0.2l0,0l0.1,0.1l0,0l0.2,0.1l0,0l0.1,0.1l0,0l0.1,0l0.1,0  l0.1-0.1l0,0l0.1-0.1l0,0l0-0.1l0,0l0-0.1l0,0c0-0.1,0-0.2,0-0.3l0,0L50.5,87.4z"/><path d="M61.9,93.2c-1.1,0.8-2.3,1.7-3.4,2.5c-4.3-1.1-12.3-2.9-16.5-3.8c1.9-0.7,4.6-1.8,7.2-2.9c-0.4-0.3-0.8-0.7-1.1-1.4  c-4.5,1.9-9.2,3.7-9.3,3.7c-0.4,0.1-0.6,0.5-0.6,0.9c0,0.4,0.3,0.7,0.7,0.8c0.1,0,13.8,3,19.6,4.5l0.2,0c0.2,0,0.3-0.1,0.5-0.1  c1.7-1.2,3.5-2.5,5.1-3.7l0.2-0.1c-0.2,0-0.4,0-0.6,0C63.1,93.5,62.4,93.4,61.9,93.2z"/><path d="M50.6,76c-0.3-0.7-0.8-0.9-1.4-0.9c-1,0-2,0.9-1.5,2.1c0.1,0.3,0.2,0.5,0.3,0.8c1-0.2,2-0.5,2.9-0.9  C50.9,76.7,50.7,76.4,50.6,76z"/><path d="M54.9,86.3c-0.2-0.4-0.3-0.8-0.5-1.2c-0.1-0.1-0.1-0.3-0.2-0.4c-0.3-0.6-0.5-1.3-0.8-1.9c0-0.1-0.1-0.2-0.1-0.3  c-0.3-0.6-0.5-1.3-0.8-1.9l0,0c-0.4-0.9-0.7-1.7-1.1-2.6c-0.9,0.4-1.9,0.8-2.9,1c1.3,3,2.5,5.9,3.7,8.9c0.2,0.6,0.5,1.2,0.7,1.8  c0.1,0.2,0.2,0.4,0.4,0.6c0.3,0.1,0.7,0.1,0.9,0.1c0.1,0,0.2,0,0.3,0c0.2-0.1,0.7-0.5,1.5-1c0-0.2-0.1-0.4-0.1-0.5  c-0.2-0.5-0.4-0.9-0.5-1.4l0,0C55.2,87,55,86.6,54.9,86.3L54.9,86.3L54.9,86.3z"/><path d="M55.1,91.2c-0.3,0-0.7-0.1-1-0.1l-0.1,0c0.5,0.5,1,0.9,1.3,1.1c0.1,0.1,0.2,0.1,0.3,0.1c0.1,0,0.1-0.1,0.2-0.2  c0.1-0.3,0.1-1,0.2-1.6c-0.1,0.1-0.2,0.2-0.3,0.4C55.6,91.1,55.4,91.2,55.1,91.2z"/><text x="0" y="115" fill="#000000" font-size="5px" font-weight="bold" font-family="'Helvetica Neue', Helvetica, Arial-Unicode, Arial, Sans-serif">Created by Mazil</text><text x="0" y="120" fill="#000000" font-size="5px" font-weight="bold" font-family="'Helvetica Neue', Helvetica, Arial-Unicode, Arial, Sans-serif">from the Noun Project</text></svg>