<svg xmlns="http://www.w3.org/2000/svg" xmlns:xlink="http://www.w3.org/1999/xlink" version="1.0" x="0px" y="0px" viewBox="0 0 32 40" enable-background="new 0 0 32 32" xml:space="preserve"><path d="M32.025,29.051l-3.033,2.963l-5.341-5.41l-1.134,2.865c-0.262,0.716-1.089,0.804-1.396,0l-4.881-11.803  c-0.285-0.629-0.387-1.005,0-1.39c0.384-0.383,0.796-0.293,1.394,0l11.857,4.861c0.86,0.336,0.827,1.019,0,1.388l-2.848,1.177  L32.025,29.051z M24,16.998l2,0.999V14h-2V16.998z M26,8h-2v4h2V8z M14,24v2h3.985l-0.997-2H14z M8,26h4v-2H8V26z M24,6h2V2.01  C26,0.906,25.086,0,23.981,0H20v2h4V6z M2,14H0v4h2V14z M2,8H0v4h2V8z M2,20H0v3.993C0,25.098,0.894,26,1.999,26H6v-2H2V20z M18,0  h-4v2h4V0z M8,2h4V0H8V2z M0,2.01V6h2V2h4V0H1.999C0.894,0,0,0.906,0,2.01z"/><text x="0" y="47" fill="#000000" font-size="5px" font-weight="bold" font-family="'Helvetica Neue', Helvetica, Arial-Unicode, Arial, Sans-serif">Created by Zlatko Najdenovski</text><text x="0" y="52" fill="#000000" font-size="5px" font-weight="bold" font-family="'Helvetica Neue', Helvetica, Arial-Unicode, Arial, Sans-serif">from the Noun Project</text></svg>